<svg xmlns="http://www.w3.org/2000/svg" width="1280" height="420" viewBox="0 0 1280 420" role="img" aria-labelledby="title desc">
<title id="title">Blessing Asare — Trustworthy AI for healthcare</title>
<desc id="desc">Data and machine learning engineer. Medical imaging, wearable sensing, explainability and reproducible ML systems.</desc>
<defs>
 <linearGradient id="background" x2="1" y2="1"><stop stop-color="#090A12"/><stop offset="1" stop-color="#18182D"/></linearGradient>
 <linearGradient id="accent"><stop stop-color="#B291FF"/><stop offset=".52" stop-color="#CCA6FA"/><stop offset="1" stop-color="#67DDF0"/></linearGradient>
 <radialGradient id="glow"><stop stop-color="#6442B5" stop-opacity=".3"/><stop offset="1" stop-color="#6442B5" stop-opacity="0"/></radialGradient>
 <pattern id="grid" width="40" height="40" patternUnits="userSpaceOnUse"><path d="M40 0H0V40" fill="none" stroke="#A9ACDA" stroke-opacity=".05"/></pattern>
 <clipPath id="clip"><rect width="1280" height="420" rx="20"/></clipPath>
</defs>
<g clip-path="url(#clip)">
 <rect width="1280" height="420" fill="url(#background)"/>
 <rect width="1280" height="420" fill="url(#grid)"/>
 <ellipse cx="970" cy="180" rx="430" ry="360" fill="url(#glow)"/>
 <g fill="none" stroke="#A496D4" stroke-opacity=".13"><circle cx="1095" cy="65" r="270"/><circle cx="1095" cy="65" r="215"/><circle cx="1095" cy="65" r="158"/><path d="M824 65h456M1095 0v335"/></g>
 <circle cx="1095" cy="280" r="4" fill="#76D8E8"/><circle cx="937" cy="65" r="4" fill="#AF8DE5"/>
 <g font-family="Arial,Helvetica,sans-serif">
  <rect x="53" y="47" width="31" height="3" rx="1.5" fill="url(#accent)"/>
  <text x="96" y="54" font-size="14" letter-spacing="2.7" fill="#B9BED6">MEDICAL AI / RESEARCH / ENGINEERING</text>
  <text x="50" y="144" font-size="69" font-weight="700" letter-spacing="-2.8" fill="#F5F4FC">Blessing Asare</text>
  <text x="54" y="196" font-size="32" fill="url(#accent)">Trustworthy AI for healthcare.</text>
  <text x="55" y="237" font-size="19" fill="#B8BCD1">Data &amp; machine learning engineer</text>
  <g font-size="15" fill="#DDDCEE">
   <rect x="54" y="292" width="254" height="64" rx="10" fill="#141522" stroke="#343048"/>
   <text x="74" y="318" fill="#ADA2D9" font-size="11" letter-spacing="1.4">RESEARCH</text><text x="74" y="342">Medical imaging &amp; explainability</text>
   <rect x="322" y="292" width="252" height="64" rx="10" fill="#141522" stroke="#343048"/>
   <text x="342" y="318" fill="#ADA2D9" font-size="11" letter-spacing="1.4">SENSING</text><text x="342" y="342">Wearable signals &amp; uncertainty</text>
   <rect x="588" y="292" width="252" height="64" rx="10" fill="#141522" stroke="#343048"/>
   <text x="608" y="318" fill="#91C9D5" font-size="11" letter-spacing="1.4">ENGINEERING</text><text x="608" y="342">Reproducible ML systems</text>
  </g>
 </g>
 <rect x="1045" y="134" width="142" height="142" rx="30" fill="#131522" stroke="#726093" stroke-opacity=".5"/>
 <text x="1116" y="226" fill="url(#accent)" font-family="Arial,Helvetica,sans-serif" font-size="62" font-weight="700" letter-spacing="-5" text-anchor="middle">BA</text>
 <rect y="416" width="1280" height="4" fill="url(#accent)"/>
</g></svg>
