<svg xmlns="http://www.w3.org/2000/svg" width="1600" height="460" viewBox="0 0 1600 460" role="img" aria-labelledby="title desc">
<title id="title">Blessing Asare | Medical Imaging AI Engineer</title>
<desc id="desc">From medical images to meaningful insights. An abstract fundus and OCT illustration accompanies Blessing Asare's medical imaging and AI profile.</desc>
<defs>
  <linearGradient id="bg" x1="0" y1="0" x2="1" y2="1"><stop stop-color="#0B1720"/><stop offset="1" stop-color="#102832"/></linearGradient>
  <radialGradient id="glow"><stop stop-color="#64D9C3" stop-opacity=".14"/><stop offset="1" stop-color="#64D9C3" stop-opacity="0"/></radialGradient>
  <radialGradient id="fundus"><stop stop-color="#174B50"/><stop offset="1" stop-color="#0D272E"/></radialGradient>
  <linearGradient id="scan" x1="0" y1="0" x2="0" y2="1"><stop stop-color="#58DCC1" stop-opacity=".22"/><stop offset="1" stop-color="#58DCC1" stop-opacity=".02"/></linearGradient>
  <clipPath id="disc"><circle cx="1234" cy="173" r="82"/></clipPath>
  <clipPath id="frame"><rect x="1028" y="42" width="500" height="376" rx="24"/></clipPath>
</defs>
<rect width="1600" height="460" rx="24" fill="url(#bg)"/>
<g clip-path="url(#frame)"><circle cx="1320" cy="194" r="285" fill="url(#glow)"/></g>
<path d="M78 62h30" stroke="#71DFC7" stroke-width="3" stroke-linecap="round"/>
<g font-family="Arial, Helvetica, sans-serif">
  <text x="125" y="69" fill="#8EC4C6" font-size="16" font-weight="700" letter-spacing="3.2">MEDICAL IMAGING + AI</text>
  <text x="74" y="178" fill="#F3F7F5" font-size="78" font-weight="700" letter-spacing="-2" textLength="595" lengthAdjust="spacingAndGlyphs">Blessing Asare</text>
  <text x="78" y="233" fill="#79E0CC" font-size="31" font-weight="600">Medical Imaging AI Engineer</text>
  <text x="78" y="302" fill="#C0D1D3" font-size="25">From medical images to meaningful insights.</text>
  <path d="M78 351h48" stroke="#D9BF84" stroke-width="3" stroke-linecap="round"/>
  <text x="144" y="358" fill="#8FAFB5" font-size="19">Research. Engineering. Clinical insight.</text>
</g>
<rect x="1028" y="42" width="500" height="376" rx="24" fill="#0A1C25" fill-opacity=".72" stroke="#31545B" stroke-width="1.4"/>
<g font-family="Arial, Helvetica, sans-serif" font-size="12" font-weight="700" letter-spacing="2">
  <text x="1059" y="77" fill="#8CAEB5">MULTIMODAL OCULAR IMAGING</text>
  <circle cx="1496" cy="73" r="4" fill="#7DE3C4"/>
</g>
<path d="M1059 94h438" stroke="#29444B"/>
<circle cx="1234" cy="173" r="88" fill="none" stroke="#577D81" stroke-opacity=".5" stroke-dasharray="2 7"/>
<circle cx="1234" cy="173" r="82" fill="url(#fundus)" stroke="#78C6BA" stroke-opacity=".5"/>
<g clip-path="url(#disc)" fill="none" stroke-linecap="round">
  <path d="M1214 182C1197 168 1181 144 1157 130M1202 172C1191 153 1188 131 1179 110M1200 176C1179 180 1161 173 1140 163M1205 187C1186 205 1177 225 1167 247M1216 191C1210 213 1213 235 1206 260M1221 184C1242 166 1264 157 1295 153M1220 175C1238 156 1252 134 1261 111M1223 191C1247 197 1269 213 1291 232" stroke="#63DAC5" stroke-width="2.2"/>
  <path d="M1196 165C1184 156 1173 151 1160 148M1182 199L1160 207M1249 162L1268 135M1247 199L1256 226M1211 222L1199 242M1280 159L1298 166" stroke="#91BFAA" stroke-width="1.2" opacity=".65"/>
  <ellipse cx="1215" cy="184" rx="7" ry="10" fill="#DFCE9C" fill-opacity=".9" stroke="none"/>
</g>
<path d="M1090 173h23M1355 173h23" stroke="#64B9AC" stroke-opacity=".5"/>
<g font-family="Arial, Helvetica, sans-serif" font-size="12" letter-spacing="1.7" fill="#8DB3B8">
  <text x="1411" y="163">FUNDUS</text>
  <text x="1411" y="187" fill="#4E7B83">01</text>
</g>
<path d="M1059 271h438" stroke="#29444B"/>
<rect x="1059" y="294" width="313" height="86" rx="10" fill="#071820" stroke="#29474C"/>
<g>
  <path d="M1065 319C1102 308 1135 317 1163 331S1216 349 1250 331S1315 310 1366 321V375H1065Z" fill="url(#scan)"/>
  <path d="M1065 319C1102 308 1135 317 1163 331S1216 349 1250 331S1315 310 1366 321" fill="none" stroke="#80DFC5" stroke-width="2"/>
  <path d="M1065 329C1102 318 1135 327 1163 341S1216 359 1250 341S1315 320 1366 331" fill="none" stroke="#4C9E91" stroke-width="1.4"/>
  <path d="M1065 339C1102 328 1135 337 1163 351S1216 369 1250 351S1315 330 1366 341" fill="none" stroke="#487975" stroke-width="1.2"/>
</g>
<g font-family="Arial, Helvetica, sans-serif" font-size="12" letter-spacing="1.7" fill="#8DB3B8">
  <text x="1411" y="328">OCT</text>
  <text x="1411" y="352" fill="#4E7B83">02</text>
</g>
</svg>
