<svg xmlns="http://www.w3.org/2000/svg" width="640" height="830" viewBox="0 0 640 830" role="img" aria-labelledby="title desc">
<title id="title">Blessing Asare | Medical Imaging AI Engineer</title>
<desc id="desc">PhD Researcher at TU Dublin and Research Ireland Scholar. From medical images to meaningful insights. Explainable AI, causal inference, uncertainty quantification and MLOps. A stylised retinal image and layered ocular scan accompany the profile.</desc>
<defs>
  <radialGradient id="retinal-field" cx=".38" cy=".48" r=".75">
    <stop stop-color="#285CCA"/><stop offset="1" stop-color="#173B9B"/>
  </radialGradient>
  <clipPath id="retinal-window"><circle cx="1310" cy="250" r="161"/></clipPath>
  <clipPath id="poster-window"><rect width="640" height="830" rx="16"/></clipPath>
</defs>
<g clip-path="url(#poster-window)">
  <rect width="640" height="830" fill="#F7F9FD"/>
  <rect y="431" width="640" height="240" fill="#2249CC"/>
  <rect y="671" width="640" height="159" fill="#FFFFFF"/>
  <g font-family="Arial, Helvetica, sans-serif">
    <text x="36" y="52" fill="#14233D" font-size="28" font-weight="700" letter-spacing="2.8">BLESSING ASARE</text>
    <path d="M36 83h568" stroke="#D9E1EF" stroke-width="1.5"/>
    <path d="M36 83h48" stroke="#E76B43" stroke-width="3"/>
    <text x="33" y="147" fill="#14233D" font-size="54" font-weight="700" letter-spacing="-1.2">MEDICAL IMAGING</text>
    <text x="31" y="227" fill="#2249CC" font-size="84" font-weight="700" letter-spacing="-2.5">AI ENGINEER</text>
    <text fill="#47556B" font-size="26"><tspan x="36" y="274">From medical images to </tspan><tspan x="36" y="309">meaningful insights.</tspan></text>
    <text x="36" y="358" fill="#14233D" font-size="27" font-weight="600">PhD Researcher</text>
    <circle cx="274" cy="349" r="3.2" fill="#E76B43"/>
    <text x="297" y="358" fill="#14233D" font-size="27" font-weight="600">TU Dublin</text>
    <text x="36" y="396" fill="#526178" font-size="25">Research Ireland Scholar</text>
    <text x="36" y="470" fill="#F5F8FF" font-size="20" font-weight="600" letter-spacing="1">OCULAR IMAGING  /  AI</text>
  </g>
  <g transform="translate(-263.6 400) scale(.56)"><g>
  <circle cx="1310" cy="250" r="184" fill="none" stroke="#C7D8FF" stroke-opacity=".27" stroke-width="1"/>
  <path d="M1126 250A184 184 0 0 1 1310 66M1310 434A184 184 0 0 0 1494 250" fill="none" stroke="#E2EBFF" stroke-opacity=".78" stroke-width="2"/>
  <circle cx="1310" cy="250" r="161" fill="url(#retinal-field)" stroke="#A8C6FF" stroke-width="1.5"/>
  <g clip-path="url(#retinal-window)" fill="none" stroke-linecap="round" stroke-linejoin="round">
    <path d="M1272 245C1243 232 1214 209 1190 174S1160 137 1137 130M1273 245C1249 229 1241 188 1236 151S1227 105 1210 82M1271 251C1237 256 1198 250 1167 231S1123 219 1091 220M1270 258C1243 278 1218 306 1195 340S1166 382 1137 395M1277 261C1260 297 1260 328 1254 366S1242 408 1230 428M1282 245C1306 208 1344 183 1383 173S1449 167 1486 152M1283 257C1309 297 1343 322 1381 329S1451 331 1485 349" stroke="#DFEAFF" stroke-width="3.2"/>
    <path d="M1230 219C1211 207 1183 204 1152 193M1223 201C1211 181 1210 159 1204 134M1247 207C1257 189 1265 165 1269 141M1201 247C1185 260 1161 275 1136 279M1228 292C1206 290 1181 297 1156 316M1206 324C1200 352 1206 372 1210 394M1260 320C1275 346 1288 374 1291 403M1322 197C1320 176 1328 155 1340 133M1350 182C1367 190 1392 200 1427 198M1387 173C1408 146 1428 129 1453 115M1334 315C1344 289 1366 276 1396 267M1361 327C1360 353 1371 376 1385 398M1418 331C1433 316 1460 307 1487 309" stroke="#86C7FF" stroke-width="1.8"/>
    <path d="M1206 186L1185 155M1241 177L1252 153M1171 231L1153 246M1220 307L1234 329M1254 366L1237 384M1367 189L1367 213M1330 157L1315 135M1390 278L1407 295M1372 374L1353 390M1450 317L1455 293" stroke="#C4DDFF" stroke-opacity=".8" stroke-width="1.2"/>
    <ellipse cx="1278" cy="252" rx="24" ry="29" fill="#F69D73" fill-opacity=".14" stroke="none"/>
    <ellipse cx="1278" cy="252" rx="13" ry="17" fill="#FFD7AE" stroke="#F6BA83" stroke-width="1.3"/>
  </g>
  <path d="M1111 250h15M1494 250h15M1310 51v15M1310 434v15" stroke="#E2EBFF" stroke-opacity=".65" stroke-width="1.5"/>
</g></g>
  <g fill="none" stroke-linecap="round">
    <path d="M36 639C101 625 151 628 199 640S283 653 325 637S458 627 604 639" stroke="#DDE9FF" stroke-opacity=".65" stroke-width="1.7"/>
    <path d="M36 648C101 634 151 637 199 649S283 662 325 646S458 636 604 648" stroke="#9FC8FF" stroke-opacity=".5" stroke-width="1.4"/>
    <path d="M36 657C101 643 151 646 199 658S283 671 325 655S458 645 604 657" stroke="#9FC8FF" stroke-opacity=".28" stroke-width="1.2"/>
  </g>
  <path d="M0 671h640M36 749h568" stroke="#D9E1EF"/>
  <g font-family="Arial, Helvetica, sans-serif" font-size="24" font-weight="600" fill="#2249CC">
    <text x="36" y="720">EXPLAINABLE AI</text>
    <text x="337" y="720">CAUSAL INFERENCE</text>
    <text x="36" y="790">UNCERTAINTY QUANTIFICATION</text>
    <text x="492" y="790">MLOps</text>
  </g>
</g>
<rect x=".6" y=".6" width="638.8" height="828.8" rx="15.4" fill="none" stroke="#D9E1EF" stroke-width="1.2"/>
</svg>
