<svg xmlns="http://www.w3.org/2000/svg" width="132" height="26" viewBox="0 0 132 26" role="img" aria-label="Shell Script"><title>Shell Script</title><rect width="132" height="26" fill="#121011" /><svg x="9" y="5" width="16" height="16" viewBox="0 0 24 24" fill="#FFFFFF"><path d="M21.038,4.9l-7.577-4.498C13.009,0.134,12.505,0,12,0c-0.505,0-1.009,0.134-1.462,0.403L2.961,4.9 C2.057,5.437,1.5,6.429,1.5,7.503v8.995c0,1.073,0.557,2.066,1.462,2.603l7.577,4.497C10.991,23.866,11.495,24,12,24 c0.505,0,1.009-0.134,1.461-0.402l7.577-4.497c0.904-0.537,1.462-1.529,1.462-2.603V7.503C22.5,6.429,21.943,5.437,21.038,4.9z M15.17,18.946l0.013,0.646c0.001,0.078-0.05,0.167-0.111,0.198l-0.383,0.22c-0.061,0.031-0.111-0.007-0.112-0.085L14.57,19.29 c-0.328,0.136-0.66,0.169-0.872,0.084c-0.04-0.016-0.057-0.075-0.041-0.142l0.139-0.584c0.011-0.046,0.036-0.092,0.069-0.121 c0.012-0.011,0.024-0.02,0.036-0.026c0.022-0.011,0.043-0.014,0.062-0.006c0.229,0.077,0.521,0.041,0.802-0.101 c0.357-0.181,0.596-0.545,0.592-0.907c-0.003-0.328-0.181-0.465-0.613-0.468c-0.55,0.001-1.064-0.107-1.072-0.917 c-0.007-0.667,0.34-1.361,0.889-1.8l-0.007-0.652c-0.001-0.08,0.048-0.168,0.111-0.2l0.37-0.236 c0.061-0.031,0.111,0.007,0.112,0.087l0.006,0.653c0.273-0.109,0.511-0.138,0.726-0.088c0.047,0.012,0.067,0.076,0.048,0.151 l-0.144,0.578c-0.011,0.044-0.036,0.088-0.065,0.116c-0.012,0.012-0.025,0.021-0.038,0.028c-0.019,0.01-0.038,0.013-0.057,0.009 c-0.098-0.022-0.332-0.073-0.699,0.113c-0.385,0.195-0.52,0.53-0.517,0.778c0.003,0.297,0.155,0.387,0.681,0.396 c0.7,0.012,1.003,0.318,1.01,1.023C16.105,17.747,15.736,18.491,15.17,18.946z M19.143,17.859c0,0.06-0.008,0.116-0.058,0.145 l-1.916,1.164c-0.05,0.029-0.09,0.004-0.09-0.056v-0.494c0-0.06,0.037-0.093,0.087-0.122l1.887-1.129 c0.05-0.029,0.09-0.004,0.09,0.056V17.859z M20.459,6.797l-7.168,4.427c-0.894,0.523-1.553,1.109-1.553,2.187v8.833 c0,0.645,0.26,1.063,0.66,1.184c-0.131,0.023-0.264,0.039-0.398,0.039c-0.42,0-0.833-0.114-1.197-0.33L3.226,18.64 c-0.741-0.44-1.201-1.261-1.201-2.142V7.503c0-0.881,0.46-1.702,1.201-2.142l7.577-4.498c0.363-0.216,0.777-0.33,1.197-0.33 c0.419,0,0.833,0.114,1.197,0.33l7.577,4.498c0.624,0.371,1.046,1.013,1.164,1.732C21.686,6.557,21.12,6.411,20.459,6.797z" /></svg><g fill="#FFFFFF" aria-hidden="true"><path d="M1227 1446V1130Q1104 1185 987.0 1213.0Q870 1241 766 1241Q628 1241 562.0 1203.0Q496 1165 496 1085Q496 1025 540.5 991.5Q585 958 702 934L866 901Q1115 851 1220.0 749.0Q1325 647 1325 459Q1325 212 1178.5 91.5Q1032 -29 731 -29Q589 -29 446.0 -2.0Q303 25 160 78V403Q303 327 436.5 288.5Q570 250 694 250Q820 250 887.0 292.0Q954 334 954 412Q954 482 908.5 520.0Q863 558 727 588L578 621Q354 669 250.5 774.0Q147 879 147 1057Q147 1280 291.0 1400.0Q435 1520 705 1520Q828 1520 958.0 1501.5Q1088 1483 1227 1446Z" transform="translate(33.0000 16.5) scale(0.00488281 -0.00488281)" /><path d="M188 1493H573V924H1141V1493H1526V0H1141V633H573V0H188Z" transform="translate(40.9021 16.5) scale(0.00488281 -0.00488281)" /><path d="M188 1493H1227V1202H573V924H1188V633H573V291H1249V0H188Z" transform="translate(49.9713 16.5) scale(0.00488281 -0.00488281)" /><path d="M188 1493H573V291H1249V0H188Z" transform="translate(57.5023 16.5) scale(0.00488281 -0.00488281)" /><path d="M188 1493H573V291H1249V0H188Z" transform="translate(64.5744 16.5) scale(0.00488281 -0.00488281)" /><path d="M1227 1446V1130Q1104 1185 987.0 1213.0Q870 1241 766 1241Q628 1241 562.0 1203.0Q496 1165 496 1085Q496 1025 540.5 991.5Q585 958 702 934L866 901Q1115 851 1220.0 749.0Q1325 647 1325 459Q1325 212 1178.5 91.5Q1032 -29 731 -29Q589 -29 446.0 -2.0Q303 25 160 78V403Q303 327 436.5 288.5Q570 250 694 250Q820 250 887.0 292.0Q954 334 954 412Q954 482 908.5 520.0Q863 558 727 588L578 621Q354 669 250.5 774.0Q147 879 147 1057Q147 1280 291.0 1400.0Q435 1520 705 1520Q828 1520 958.0 1501.5Q1088 1483 1227 1446Z" transform="translate(75.8279 16.5) scale(0.00488281 -0.00488281)" /><path d="M1372 82Q1266 27 1151.0 -1.0Q1036 -29 911 -29Q538 -29 320.0 179.5Q102 388 102 745Q102 1103 320.0 1311.5Q538 1520 911 1520Q1036 1520 1151.0 1492.0Q1266 1464 1372 1409V1100Q1265 1173 1161.0 1207.0Q1057 1241 942 1241Q736 1241 618.0 1109.0Q500 977 500 745Q500 514 618.0 382.0Q736 250 942 250Q1057 250 1161.0 284.0Q1265 318 1372 391Z" transform="translate(83.7301 16.5) scale(0.00488281 -0.00488281)" /><path d="M735 831Q856 831 908.5 876.0Q961 921 961 1024Q961 1126 908.5 1170.0Q856 1214 735 1214H573V831ZM573 565V0H188V1493H776Q1071 1493 1208.5 1394.0Q1346 1295 1346 1081Q1346 933 1274.5 838.0Q1203 743 1059 698Q1138 680 1200.5 616.5Q1263 553 1327 424L1536 0H1126L944 371Q889 483 832.5 524.0Q776 565 682 565Z" transform="translate(91.7689 16.5) scale(0.00488281 -0.00488281)" /><path d="M188 1493H573V0H188Z" transform="translate(100.1691 16.5) scale(0.00488281 -0.00488281)" /><path d="M188 1493H827Q1112 1493 1264.5 1366.5Q1417 1240 1417 1006Q1417 771 1264.5 644.5Q1112 518 827 518H573V0H188ZM573 1214V797H786Q898 797 959.0 851.5Q1020 906 1020 1006Q1020 1106 959.0 1160.0Q898 1214 786 1214Z" transform="translate(104.5898 16.5) scale(0.00488281 -0.00488281)" /><path d="M10 1493H1386V1202H891V0H506V1202H10Z" transform="translate(112.6189 16.5) scale(0.00488281 -0.00488281)" /></g></svg>
