<svg xmlns="http://www.w3.org/2000/svg" width="98" height="26" viewBox="0 0 98 26" role="img" aria-label="MLflow"><title>MLflow</title><rect width="98" height="26" fill="#0194E2" /><svg x="9" y="5" width="16" height="16" viewBox="0 0 24 24" fill="#FFFFFF"><path d="M11.883.002a12.044 12.044 0 0 0-9.326 19.463l3.668-2.694A7.573 7.573 0 0 1 12.043 4.45v2.867l6.908-5.14A12.012 12.012 0 0 0 11.883.002zm9.562 4.533L17.777 7.23a7.573 7.573 0 0 1-5.818 12.322v-2.867l-6.908 5.14a12.046 12.046 0 0 0 16.394-17.29z" /></svg><g fill="#FFFFFF" aria-hidden="true"><path d="M188 1493H678L1018 694L1360 1493H1849V0H1485V1092L1141 287H897L553 1092V0H188Z" transform="translate(33.0000 16.5) scale(0.00488281 -0.00488281)" /><path d="M188 1493H573V291H1249V0H188Z" transform="translate(43.6512 16.5) scale(0.00488281 -0.00488281)" /><path d="M188 1493H1227V1202H573V924H1188V633H573V0H188Z" transform="translate(50.7232 16.5) scale(0.00488281 -0.00488281)" /><path d="M188 1493H573V291H1249V0H188Z" transform="translate(58.2543 16.5) scale(0.00488281 -0.00488281)" /><path d="M870 1241Q694 1241 597.0 1111.0Q500 981 500 745Q500 510 597.0 380.0Q694 250 870 250Q1047 250 1144.0 380.0Q1241 510 1241 745Q1241 981 1144.0 1111.0Q1047 1241 870 1241ZM870 1520Q1230 1520 1434.0 1314.0Q1638 1108 1638 745Q1638 383 1434.0 177.0Q1230 -29 870 -29Q511 -29 306.5 177.0Q102 383 102 745Q102 1108 306.5 1314.0Q511 1520 870 1520Z" transform="translate(65.3264 16.5) scale(0.00488281 -0.00488281)" /><path d="M61 1493H430L688 408L944 1493H1315L1571 408L1829 1493H2195L1843 0H1399L1128 1135L860 0H416Z" transform="translate(74.5273 16.5) scale(0.00488281 -0.00488281)" /></g></svg>
