<svg xmlns="http://www.w3.org/2000/svg" width="95" height="26" viewBox="0 0 95 26" role="img" aria-label="OpenCV"><title>OpenCV</title><rect width="95" height="26" fill="#5C3EE8" /><svg x="9" y="5" width="16" height="16" viewBox="0 0 24 24" fill="#FFFFFF"><path d="M11.8992.8525C8.735.8525 6.17 3.4175 6.17 6.5817c0 2.102 1.1321 3.9398 2.8198 4.9366l1.6412-2.7849c.0411-.0699.0176-.1593-.0495-.2048-.6233-.4227-1.0328-1.137-1.0328-1.947 0-1.298 1.0524-2.3504 2.3505-2.3504 1.2981 0 2.3505 1.0524 2.3505 2.3505 0 .8098-.4095 1.5242-1.0328 1.947-.0671.0454-.0907.1348-.0495.2047l1.6414 2.785c1.6878-.9969 2.8199-2.8346 2.8199-4.9367 0-3.1642-2.5653-5.7292-5.7295-5.7292zm-6.17 10.8366C2.565 11.6891 0 14.2541 0 17.4183c0 3.1642 2.565 5.7292 5.7292 5.7292 3.1798 0 5.8074-2.6995 5.7275-5.8762H8.2313c-.0847 0-.1513.0717-.1519.1564-.0082 1.266-1.0644 2.3411-2.3502 2.3411-1.2981 0-2.3505-1.0524-2.3505-2.3505 0-1.2982 1.0524-2.3505 2.3505-2.3505.34 0 .663.0724.9547.2022.0713.0318.1566.0077.1962-.0595l1.6464-2.7935c-.8273-.4636-1.7815-.7279-2.7973-.7279zm15.4424.7614l-1.6366 2.7878c-.041.07-.0172.1594.05.2048.624.4217 1.0348 1.1354 1.0363 1.9452.0022 1.298-1.0483 2.352-2.3465 2.3542-1.298.0023-2.3523-1.0482-2.3545-2.3462-.0015-.8098.4068-1.5248 1.0294-1.9486.067-.0457.0905-.1353.0492-.2051l-1.6464-2.7818c-1.6859.9998-2.8146 2.8394-2.811 4.9415.0056 3.1641 2.575 5.7248 5.7393 5.7192 3.1641-.0054 5.7246-2.575 5.7192-5.7392-.0037-2.1022-1.139-3.938-2.8284-4.9318z" /></svg><g fill="#FFFFFF" aria-hidden="true"><path d="M870 1241Q694 1241 597.0 1111.0Q500 981 500 745Q500 510 597.0 380.0Q694 250 870 250Q1047 250 1144.0 380.0Q1241 510 1241 745Q1241 981 1144.0 1111.0Q1047 1241 870 1241ZM870 1520Q1230 1520 1434.0 1314.0Q1638 1108 1638 745Q1638 383 1434.0 177.0Q1230 -29 870 -29Q511 -29 306.5 177.0Q102 383 102 745Q102 1108 306.5 1314.0Q511 1520 870 1520Z" transform="translate(33.0000 16.5) scale(0.00488281 -0.00488281)" /><path d="M188 1493H827Q1112 1493 1264.5 1366.5Q1417 1240 1417 1006Q1417 771 1264.5 644.5Q1112 518 827 518H573V0H188ZM573 1214V797H786Q898 797 959.0 851.5Q1020 906 1020 1006Q1020 1106 959.0 1160.0Q898 1214 786 1214Z" transform="translate(42.2010 16.5) scale(0.00488281 -0.00488281)" /><path d="M188 1493H1227V1202H573V924H1188V633H573V291H1249V0H188Z" transform="translate(50.2301 16.5) scale(0.00488281 -0.00488281)" /><path d="M188 1493H618L1161 469V1493H1526V0H1096L553 1024V0H188Z" transform="translate(57.7611 16.5) scale(0.00488281 -0.00488281)" /><path d="M1372 82Q1266 27 1151.0 -1.0Q1036 -29 911 -29Q538 -29 320.0 179.5Q102 388 102 745Q102 1103 320.0 1311.5Q538 1520 911 1520Q1036 1520 1151.0 1492.0Q1266 1464 1372 1409V1100Q1265 1173 1161.0 1207.0Q1057 1241 942 1241Q736 1241 618.0 1109.0Q500 977 500 745Q500 514 618.0 382.0Q736 250 942 250Q1057 250 1161.0 284.0Q1265 318 1372 391Z" transform="translate(66.8303 16.5) scale(0.00488281 -0.00488281)" /><path d="M10 1493H397L793 391L1188 1493H1575L1022 0H563Z" transform="translate(74.8691 16.5) scale(0.00488281 -0.00488281)" /></g></svg>
